<svg width="49" height="50" viewBox="0 0 49 50" fill="none" xmlns="http://www.w3.org/2000/svg">
<path d="M11.1115 10.4854C10.4799 8.89228 10.5052 7.07187 10.7856 5.40628C12.7155 5.97952 14.5284 6.88395 16.1413 8.07821C16.8487 8.6126 17.7758 8.7849 18.6398 8.52769C20.8565 7.87051 23.1592 7.54066 25.4734 7.54882C27.9012 7.54882 30.2077 7.89842 32.3019 8.5252C33.1659 8.7849 34.0931 8.6101 34.7979 8.07571C36.41 6.88171 38.222 5.97729 40.1511 5.40379C40.4315 7.06937 40.4543 8.88978 39.8277 10.4804C39.4488 11.4393 39.6383 12.5431 40.3532 13.3272C42.1822 15.3324 43.1574 17.6372 43.1574 20.0345C43.1574 25.3134 38.1806 30.4899 30.1874 32.0656C28.1866 32.4602 27.406 34.9498 28.9369 36.3757C29.9197 37.2896 30.526 38.5781 30.526 40.0115V47.5029C30.526 48.1652 30.7921 48.8003 31.2659 49.2686C31.7397 49.7369 32.3822 50 33.0523 50C33.7223 50 34.3648 49.7369 34.8386 49.2686C35.3124 48.8003 35.5785 48.1652 35.5785 47.5029V40.0115C35.5785 38.5881 35.2754 37.2347 34.7348 36.0086C42.3566 33.3941 48.21 27.5084 48.21 20.0345C48.21 16.6708 46.9872 13.5794 44.9586 10.9899C45.4891 8.94222 45.4412 6.87959 45.239 5.29641C45.0597 3.87804 44.8096 2.02018 43.7991 0.911453C42.2959 -0.734154 39.8075 0.234731 38.0391 0.831545C36.1412 1.46387 34.3361 2.34129 32.6708 3.44104C30.319 2.84692 27.9007 2.54907 25.4734 2.55456C22.9623 2.55456 20.5396 2.8667 18.271 3.44354C16.6056 2.34379 14.8005 1.46636 12.9026 0.834042C11.1342 0.234732 8.64328 -0.734154 7.14014 0.911453C6.10942 2.04016 5.89468 3.75069 5.71026 5.20402L5.69763 5.29891C5.49553 6.88458 5.45006 8.94971 5.98058 10.9999C3.95955 13.5869 2.73683 16.6733 2.73683 20.0345C2.73683 27.5059 8.59023 33.3941 16.212 36.0086C15.6613 37.2557 15.3742 38.6008 15.3683 39.9615L14.9438 40.0464C13.1325 40.2937 11.9729 40.0714 11.1847 39.7418C9.26475 38.9377 8.27444 36.9126 7.06688 35.3643C6.31405 34.4029 5.21764 33.2018 3.53513 32.6475C3.22029 32.5438 2.88789 32.5025 2.5569 32.5259C2.22591 32.5492 1.90282 32.6368 1.60606 32.7836C1.00674 33.08 0.551105 33.5996 0.339381 34.2281C0.127657 34.8566 0.177192 35.5425 0.477088 36.1349C0.776985 36.7273 1.30268 37.1777 1.93852 37.387C3.34819 37.8515 4.32333 40.2387 5.21764 41.2975C6.15994 42.4162 7.41298 43.5849 9.20917 44.339C10.9321 45.0632 12.9557 45.3204 15.3683 45.0282V47.5029C15.3683 48.1652 15.6344 48.8003 16.1082 49.2686C16.582 49.7369 17.2245 50 17.8945 50C18.5646 50 19.2071 49.7369 19.6809 49.2686C20.1547 48.8003 20.4208 48.1652 20.4208 47.5029V40.0115C20.4208 38.5781 21.0271 37.2896 22.0099 36.3757C23.5433 34.9473 22.7602 32.4602 20.7593 32.0656C12.7637 30.4899 7.7894 25.3134 7.7894 20.0345C7.7894 17.6422 8.76202 15.3374 10.5885 13.3322C11.3035 12.5481 11.4904 11.4443 11.1115 10.4854Z" fill="white"/>
</svg>
