<svg width="240" height="32" viewBox="0 0 240 32" fill="none" xmlns="http://www.w3.org/2000/svg">
<path d="M1.59375 27V2.27273H12.3153C14.1989 2.27273 15.7805 2.52628 17.0604 3.03338C18.3482 3.54048 19.3182 4.25686 19.9702 5.18253C20.6302 6.10819 20.9602 7.19886 20.9602 8.45454C20.9602 9.36411 20.759 10.1932 20.3565 10.9418C19.9621 11.6903 19.4067 12.3182 18.6903 12.8253C17.974 13.3243 17.1368 13.6705 16.179 13.8636V14.1051C17.2415 14.1454 18.2074 14.415 19.0767 14.9141C19.946 15.4051 20.6383 16.0852 21.1534 16.9545C21.6686 17.8158 21.9261 18.83 21.9261 19.9972C21.9261 21.3494 21.572 22.5528 20.8636 23.6072C20.1634 24.6617 19.1652 25.4908 17.8693 26.0945C16.5734 26.6982 15.0279 27 13.233 27H1.59375ZM8.30682 21.6392H11.446C12.5729 21.6392 13.4181 21.4299 13.9815 21.0114C14.545 20.5848 14.8267 19.9569 14.8267 19.1278C14.8267 18.5483 14.6939 18.0573 14.4283 17.6548C14.1626 17.2524 13.7843 16.9465 13.2933 16.7372C12.8104 16.5279 12.2268 16.4233 11.5426 16.4233H8.30682V21.6392ZM8.30682 12.2699H11.0597C11.6473 12.2699 12.1664 12.1773 12.6172 11.9922C13.0679 11.8071 13.4181 11.5414 13.6676 11.1953C13.9252 10.8411 14.054 10.4105 14.054 9.90341C14.054 9.13873 13.7803 8.55516 13.233 8.1527C12.6856 7.74219 11.9934 7.53693 11.1562 7.53693H8.30682V12.2699ZM33.2876 27.3381C31.3075 27.3381 29.6011 26.9598 28.1683 26.2031C26.7436 25.4384 25.6449 24.3437 24.8722 22.919C24.1075 21.4863 23.7251 19.7718 23.7251 17.7756C23.7251 15.8598 24.1115 14.1856 24.8842 12.7528C25.657 11.3201 26.7476 10.2053 28.1562 9.40838C29.5649 8.61151 31.227 8.21307 33.1428 8.21307C34.5433 8.21307 35.8111 8.4304 36.946 8.86506C38.081 9.29972 39.0509 9.93158 39.8558 10.7607C40.6607 11.5817 41.2805 12.5798 41.7152 13.755C42.1499 14.9302 42.3672 16.2543 42.3672 17.7273V19.2727H25.8018V15.6023H36.2337C36.2256 15.071 36.0888 14.6042 35.8232 14.2017C35.5656 13.7912 35.2154 13.4732 34.7727 13.2479C34.3381 13.0144 33.843 12.8977 33.2876 12.8977C32.7483 12.8977 32.2533 13.0144 31.8026 13.2479C31.3518 13.4732 30.9896 13.7872 30.7159 14.1896C30.4503 14.5921 30.3094 15.063 30.2933 15.6023V19.5625C30.2933 20.1581 30.4181 20.6894 30.6676 21.1562C30.9171 21.6231 31.2753 21.9893 31.7422 22.255C32.209 22.5206 32.7725 22.6534 33.4325 22.6534C33.8913 22.6534 34.3099 22.589 34.6882 22.4602C35.0746 22.3314 35.4046 22.1463 35.6783 21.9048C35.9519 21.6553 36.1532 21.3575 36.282 21.0114H42.3672C42.1579 22.2992 41.6629 23.4181 40.8821 24.3679C40.1013 25.3097 39.067 26.0421 37.7791 26.5653C36.4993 27.0805 35.0021 27.3381 33.2876 27.3381ZM45.0868 27V8.45454H51.5584V11.9801H51.7516C52.0897 10.6761 52.6249 9.7223 53.3574 9.11861C54.098 8.51491 54.9632 8.21307 55.9533 8.21307C56.2431 8.21307 56.5288 8.23722 56.8105 8.28551C57.1003 8.32576 57.378 8.38613 57.6436 8.46662V14.1534C57.3136 14.0407 56.9071 13.9562 56.4242 13.8999C55.9412 13.8435 55.5267 13.8153 55.1806 13.8153C54.5286 13.8153 53.941 13.9643 53.4178 14.2621C52.9026 14.5518 52.4962 14.9624 52.1983 15.4936C51.9005 16.0168 51.7516 16.6326 51.7516 17.3409V27H45.0868ZM71.6523 8.45454V13.2841H59.4336V8.45454H71.6523ZM61.8001 4.01136H68.4648V21.0355C68.4648 21.2931 68.5091 21.5104 68.5977 21.6875C68.6862 21.8565 68.823 21.9853 69.0082 22.0739C69.1933 22.1544 69.4308 22.1946 69.7205 22.1946C69.9218 22.1946 70.1552 22.1705 70.4208 22.1222C70.6945 22.0739 70.8957 22.0336 71.0245 22.0014L71.9904 26.6861C71.6926 26.7746 71.266 26.8833 70.7106 27.0121C70.1632 27.1409 69.5112 27.2254 68.7546 27.2656C67.2253 27.3461 65.9414 27.1892 64.9031 26.7947C63.8647 26.3923 63.0839 25.7604 62.5607 24.8991C62.0375 24.0379 61.784 22.9593 61.8001 21.6634V4.01136ZM81.4352 16.5682V27H74.7704V2.27273H81.1937V11.9801H81.3869C81.8055 10.7969 82.5017 9.87524 83.4757 9.2152C84.4496 8.54711 85.6208 8.21307 86.9892 8.21307C88.3012 8.21307 89.4402 8.51089 90.4061 9.10653C91.38 9.70218 92.1326 10.5232 92.6639 11.5696C93.2032 12.616 93.4688 13.8153 93.4608 15.1676V27H86.796V16.5682C86.804 15.6506 86.5746 14.9302 86.1078 14.407C85.649 13.8838 84.993 13.6222 84.1397 13.6222C83.6004 13.6222 83.1255 13.7429 82.715 13.9844C82.3126 14.2178 81.9986 14.5559 81.7733 14.9986C81.5559 15.4332 81.4432 15.9564 81.4352 16.5682ZM127.382 14.6364C127.382 17.3892 126.847 19.7114 125.776 21.603C124.706 23.4865 123.261 24.9152 121.442 25.8892C119.623 26.8551 117.594 27.3381 115.357 27.3381C113.103 27.3381 111.066 26.8511 109.247 25.8771C107.436 24.8951 105.995 23.4624 104.925 21.5788C103.862 19.6873 103.331 17.3731 103.331 14.6364C103.331 11.8835 103.862 9.56534 104.925 7.68182C105.995 5.79025 107.436 4.3615 109.247 3.3956C111.066 2.42164 113.103 1.93466 115.357 1.93466C117.594 1.93466 119.623 2.42164 121.442 3.3956C123.261 4.3615 124.706 5.79025 125.776 7.68182C126.847 9.56534 127.382 11.8835 127.382 14.6364ZM120.476 14.6364C120.476 13.1553 120.279 11.9077 119.884 10.8935C119.498 9.87121 118.923 9.09848 118.158 8.57528C117.401 8.04403 116.468 7.77841 115.357 7.77841C114.246 7.77841 113.308 8.04403 112.544 8.57528C111.787 9.09848 111.211 9.87121 110.817 10.8935C110.431 11.9077 110.237 13.1553 110.237 14.6364C110.237 16.1174 110.431 17.3691 110.817 18.3913C111.211 19.4055 111.787 20.1783 112.544 20.7095C113.308 21.2327 114.246 21.4943 115.357 21.4943C116.468 21.4943 117.401 21.2327 118.158 20.7095C118.923 20.1783 119.498 19.4055 119.884 18.3913C120.279 17.3691 120.476 16.1174 120.476 14.6364ZM130.585 27V8.45454H137.056V11.9801H137.25C137.588 10.6761 138.123 9.7223 138.855 9.11861C139.596 8.51491 140.461 8.21307 141.451 8.21307C141.741 8.21307 142.027 8.23722 142.309 8.28551C142.598 8.32576 142.876 8.38613 143.142 8.46662V14.1534C142.812 14.0407 142.405 13.9562 141.922 13.8999C141.439 13.8435 141.025 13.8153 140.679 13.8153C140.027 13.8153 139.439 13.9643 138.916 14.2621C138.401 14.5518 137.994 14.9624 137.696 15.4936C137.399 16.0168 137.25 16.6326 137.25 17.3409V27H130.585ZM157.15 8.45454V13.2841H144.932V8.45454H157.15ZM147.298 4.01136H153.963V21.0355C153.963 21.2931 154.007 21.5104 154.096 21.6875C154.184 21.8565 154.321 21.9853 154.506 22.0739C154.691 22.1544 154.929 22.1946 155.219 22.1946C155.42 22.1946 155.653 22.1705 155.919 22.1222C156.193 22.0739 156.394 22.0336 156.523 22.0014L157.488 26.6861C157.191 26.7746 156.764 26.8833 156.209 27.0121C155.661 27.1409 155.009 27.2254 154.253 27.2656C152.723 27.3461 151.439 27.1892 150.401 26.7947C149.363 26.3923 148.582 25.7604 148.059 24.8991C147.536 24.0379 147.282 22.9593 147.298 21.6634V4.01136ZM159.87 27V8.45454H166.535V27H159.87ZM163.202 6.52273C162.301 6.52273 161.528 6.2249 160.884 5.62926C160.24 5.03362 159.918 4.31723 159.918 3.48011C159.918 2.64299 160.24 1.92661 160.884 1.33096C161.528 0.735322 162.301 0.4375 163.202 0.4375C164.112 0.4375 164.885 0.735322 165.521 1.33096C166.165 1.92661 166.487 2.64299 166.487 3.48011C166.487 4.31723 166.165 5.03362 165.521 5.62926C164.885 6.2249 164.112 6.52273 163.202 6.52273ZM170.124 27V23.3295L178.237 13.6222V13.5256H170.414V8.45454H186.11V12.5114L178.72 21.8324V21.929H186.399V27H170.124Z" fill="white"/>
<path d="M26 26L17.5 22L17 22.5L18 24.5L20.5 30.5H21L22 27L26 26Z" fill="#0051FF" stroke="black" stroke-width="0.3"/>
<path d="M17.2324 21.501C17.3422 21.4967 17.4515 21.5171 17.5537 21.5596L17.5547 21.5586L17.5576 21.5605C17.56 21.5615 17.5631 21.5615 17.5654 21.5625L17.5645 21.5635L26.0234 24.999L26.1309 25.0527C26.1991 25.094 26.2602 25.1459 26.3125 25.2061L26.3838 25.3018L26.4395 25.4082C26.4861 25.518 26.506 25.6377 26.498 25.7578C26.4874 25.9181 26.4267 26.0716 26.3242 26.1953C26.2218 26.3188 26.083 26.4069 25.9277 26.4473H25.9268L22.6855 27.2842H22.6846C22.5881 27.309 22.5002 27.3593 22.4297 27.4297C22.3591 27.5001 22.3083 27.5881 22.2832 27.6846L21.4473 30.9268V30.9277C21.4069 31.083 21.3188 31.2218 21.1953 31.3242C21.0716 31.4267 20.9181 31.4874 20.7578 31.498C20.5976 31.5087 20.4379 31.4689 20.3018 31.3838C20.1996 31.3199 20.1145 31.233 20.0527 31.1309L19.999 31.0234L16.5586 22.5547L16.5596 22.5537C16.5025 22.4163 16.4858 22.2654 16.5137 22.1191L16.543 22.0098C16.5806 21.9024 16.6425 21.8048 16.7236 21.7236L16.8096 21.6484C16.9009 21.5811 17.0067 21.5351 17.1191 21.5137L17.2324 21.501Z" fill="#0051FF" stroke="white" stroke-linecap="round" stroke-linejoin="round"/>
</svg>
