<svg width="50" height="52" viewBox="0 0 50 52" fill="none" xmlns="http://www.w3.org/2000/svg">
<path d="M25.2422 0.699219C31.8457 0.699219 32.6592 0.749023 35.2432 0.848633C37.7793 0.948242 39.5498 1.39648 41.1289 2.04395C42.7559 2.69141 44.0957 3.53809 45.4355 4.93262C46.7754 6.32715 47.5889 7.72168 48.2109 9.41504C48.833 11.0586 49.2637 12.9014 49.3594 15.541C49.4551 18.2305 49.5029 19.0771 49.5029 25.9502C49.5029 32.8232 49.4551 33.6699 49.3594 36.3594C49.2637 38.999 48.833 40.8418 48.2109 42.4854C47.5889 44.1787 46.7754 45.5732 45.4355 46.9678C44.0957 48.3623 42.7559 49.209 41.1289 49.8564C39.5498 50.5039 37.7793 50.9521 35.2432 51.0518C32.6592 51.1514 31.8457 51.2012 25.2422 51.2012C18.6387 51.2012 17.8252 51.1514 15.2412 51.0518C12.7051 50.9521 10.9346 50.5039 9.35547 49.8564C7.72852 49.209 6.38867 48.3623 5.04883 46.9678C3.70898 45.5732 2.89551 44.1787 2.27344 42.4854C1.65137 40.8418 1.2207 38.999 1.125 36.3594C1.0293 33.6699 0.981445 32.8232 0.981445 25.9502C0.981445 19.0771 1.0293 18.2305 1.125 15.541C1.2207 12.9014 1.65137 11.0586 2.27344 9.41504C2.89551 7.72168 3.70898 6.32715 5.04883 4.93262C6.38867 3.53809 7.72852 2.69141 9.35547 2.04395C10.9346 1.39648 12.7051 0.948242 15.2412 0.848633C17.8252 0.749023 18.6387 0.699219 25.2422 0.699219ZM25.2422 3.98633C18.3516 3.98633 17.5381 4.03613 14.8584 4.13574C12.3701 4.23535 10.9824 4.7334 10.0732 5.08203C7.72852 6.07812 6.14941 7.72168 5.19238 10.1621C4.85742 11.1084 4.37891 12.5527 4.2832 15.1426C4.1875 17.9316 4.13965 18.7783 4.13965 25.9502C4.13965 33.1221 4.1875 33.9688 4.2832 36.7578C4.37891 39.3477 4.85742 40.792 5.19238 41.7383C6.14941 44.1787 7.72852 45.8223 10.0732 46.8184C10.9824 47.167 12.3701 47.665 14.8584 47.7646C17.5381 47.8643 18.3516 47.9141 25.2422 47.9141C32.1328 47.9141 32.9463 47.8643 35.626 47.7646C38.1143 47.665 39.502 47.167 40.4111 46.8184C42.7559 45.8223 44.335 44.1787 45.292 41.7383C45.627 40.792 46.1055 39.3477 46.2012 36.7578C46.2969 33.9688 46.3447 33.1221 46.3447 25.9502C46.3447 18.7783 46.2969 17.9316 46.2012 15.1426C46.1055 12.5527 45.627 11.1084 45.292 10.1621C44.335 7.72168 42.7559 6.07812 40.4111 5.08203C39.502 4.7334 38.1143 4.23535 35.626 4.13574C32.9463 4.03613 32.1328 3.98633 25.2422 3.98633ZM25.2422 36.0605C30.6016 36.0605 34.9561 31.5283 34.9561 25.9502C34.9561 20.3721 30.6016 15.8398 25.2422 15.8398C19.8828 15.8398 15.5283 20.3721 15.5283 25.9502C15.5283 31.5283 19.8828 36.0605 25.2422 36.0605ZM25.2422 13.001C32.1328 13.001 37.6836 18.7783 37.6836 25.9502C37.6836 33.1221 32.1328 38.8994 25.2422 38.8994C18.3516 38.8994 12.8008 33.1221 12.8008 25.9502C12.8008 18.7783 18.3516 13.001 25.2422 13.001ZM41.1289 12.5029C41.1289 14.1963 39.7891 15.4912 38.1621 15.4912C36.5352 15.4912 35.291 14.1963 35.291 12.5029C35.291 10.8096 36.5352 9.41504 38.1621 9.41504C39.7891 9.41504 41.1289 10.8096 41.1289 12.5029Z" fill="white"/>
</svg>
