<svg width="18" height="18" viewBox="0 0 18 18" fill="none" xmlns="http://www.w3.org/2000/svg">
<path d="M16.2401 1.75999C17.0474 2.56977 17.5007 3.66656 17.5007 4.80999C17.5007 5.95343 17.0474 7.05022 16.2401 7.85999L14.7101 9.37999C13.5901 10.5 12.0101 10.85 10.5701 10.47L13.1901 7.85999L13.9501 7.08999L14.7101 6.32999C15.5501 5.48999 15.5501 4.12999 14.7101 3.28999C14.5118 3.08802 14.2753 2.92759 14.0143 2.81807C13.7533 2.70855 13.4731 2.65214 13.1901 2.65214C12.9071 2.65214 12.6269 2.70855 12.3659 2.81807C12.1049 2.92759 11.8684 3.08802 11.6701 3.28999L10.9001 4.04999L7.52012 7.42999C7.15012 5.98999 7.50012 4.40999 8.62012 3.28999L10.1401 1.75999C10.9499 0.952709 12.0467 0.49939 13.1901 0.49939C14.3335 0.49939 15.4303 0.952709 16.2401 1.75999ZM7.09012 12.43L12.4301 7.08999C12.8501 6.66999 12.8501 5.98999 12.4301 5.56999C11.9901 5.13999 11.3001 5.17999 10.9001 5.56999L5.57012 10.91C5.15012 11.33 5.15012 12.01 5.57012 12.43C6.01012 12.86 6.70012 12.82 7.09012 12.43ZM6.33012 14.72L10.4701 10.57C10.8501 12.01 10.5001 13.59 9.38012 14.71L7.86012 16.24C7.05034 17.0473 5.95355 17.5006 4.81012 17.5006C3.66668 17.5006 2.56989 17.0473 1.76012 16.24C0.952831 15.4302 0.499512 14.3334 0.499512 13.19C0.499512 12.0466 0.952831 10.9498 1.76012 10.14L3.29012 8.61999C4.41012 7.49999 5.99012 7.14999 7.43012 7.51999L3.29012 11.67C2.44012 12.51 2.44012 13.87 3.29012 14.72C4.13012 15.56 5.49012 15.56 6.33012 14.72Z" fill="white"/>
</svg>
