<svg width="34" height="30" viewBox="0 0 34 30" fill="none" xmlns="http://www.w3.org/2000/svg">
<path d="M7.23828 27V2.27273H17.9599C19.8434 2.27273 21.4251 2.52628 22.7049 3.03338C23.9928 3.54048 24.9627 4.25686 25.6147 5.18253C26.2747 6.10819 26.6048 7.19886 26.6048 8.45454C26.6048 9.36411 26.4035 10.1932 26.0011 10.9418C25.6067 11.6903 25.0513 12.3182 24.3349 12.8253C23.6185 13.3243 22.7814 13.6705 21.8235 13.8636V14.1051C22.886 14.1454 23.8519 14.415 24.7212 14.9141C25.5906 15.4051 26.2828 16.0852 26.7979 16.9545C27.3131 17.8158 27.5707 18.83 27.5707 19.9972C27.5707 21.3494 27.2165 22.5528 26.5082 23.6072C25.8079 24.6617 24.8098 25.4908 23.5138 26.0945C22.2179 26.6982 20.6725 27 18.8775 27H7.23828ZM13.9513 21.6392H17.0906C18.2174 21.6392 19.0626 21.4299 19.6261 21.0114C20.1895 20.5848 20.4712 19.9569 20.4712 19.1278C20.4712 18.5483 20.3384 18.0573 20.0728 17.6548C19.8072 17.2524 19.4289 16.9465 18.9379 16.7372C18.4549 16.5279 17.8713 16.4233 17.1871 16.4233H13.9513V21.6392ZM13.9513 12.2699H16.7042C17.2918 12.2699 17.811 12.1773 18.2617 11.9922C18.7125 11.8071 19.0626 11.5414 19.3121 11.1953C19.5697 10.8411 19.6985 10.4105 19.6985 9.90341C19.6985 9.13873 19.4248 8.55516 18.8775 8.1527C18.3301 7.74219 17.6379 7.53693 16.8008 7.53693H13.9513V12.2699Z" fill="white"/>
<circle cx="25.5" cy="24.5" r="4.5" fill="#0051FF"/>
</svg>
