<svg width="74" height="52" viewBox="0 0 74 52" fill="none" xmlns="http://www.w3.org/2000/svg">
<path d="M62.0709 45.5001H72.5173C72.702 45.5001 72.8791 45.5735 73.0098 45.7041C73.1404 45.8347 73.2137 46.0119 73.2137 46.1966V48.2859C73.2137 49.825 69.1814 51.0716 67.6423 51.0716H6.35659C4.81748 51.0716 0.785156 49.825 0.785156 48.2859V46.1966C0.785156 46.0119 0.85853 45.8347 0.989136 45.7041C1.11974 45.5735 1.29688 45.5001 1.48158 45.5001H11.928C10.4504 45.5001 9.03326 44.9131 7.98842 43.8683C6.94357 42.8235 6.35659 41.4063 6.35659 39.9287V6.50014C6.35659 5.0225 6.94357 3.60539 7.98842 2.56054C9.03326 1.5157 10.4504 0.928711 11.928 0.928711H62.0709C63.5485 0.928711 64.9656 1.5157 66.0105 2.56054C67.0553 3.60539 67.6423 5.0225 67.6423 6.50014V39.9287C67.6423 41.4063 67.0553 42.8235 66.0105 43.8683C64.9656 44.9131 63.5485 45.5001 62.0709 45.5001ZM11.928 7.893V38.5359C11.928 38.9053 12.0748 39.2595 12.336 39.5208C12.5972 39.782 12.9515 39.9287 13.3209 39.9287H60.678C61.0474 39.9287 61.4017 39.782 61.6629 39.5208C61.9241 39.2595 62.0709 38.9053 62.0709 38.5359V7.893C62.0709 7.52359 61.9241 7.16931 61.6629 6.9081C61.4017 6.64689 61.0474 6.50014 60.678 6.50014H13.3209C12.9515 6.50014 12.5972 6.64689 12.336 6.9081C12.0748 7.16931 11.928 7.52359 11.928 7.893ZM31.428 44.1073C31.0586 44.1073 30.7043 44.254 30.4431 44.5152C30.1819 44.7764 30.0352 45.1307 30.0352 45.5001C30.0352 45.8695 30.1819 46.2238 30.4431 46.485C30.7043 46.7462 31.0586 46.893 31.428 46.893H42.5709C42.9403 46.893 43.2946 46.7462 43.5558 46.485C43.817 46.2238 43.9637 45.8695 43.9637 45.5001C43.9637 45.1307 43.817 44.7764 43.5558 44.5152C43.2946 44.254 42.9403 44.1073 42.5709 44.1073H31.428Z" fill="#0070D1"/>
</svg>
