<svg width="52" height="52" viewBox="0 0 52 52" fill="none" xmlns="http://www.w3.org/2000/svg">
<path d="M47.1778 0.285645H5.09827C2.79897 0.285645 0.790039 1.97314 0.790039 4.29087V47.3072C0.790039 49.6376 2.79897 51.7142 5.09827 51.7142H47.1654C49.4771 51.7142 51.2103 49.6238 51.2103 47.3072V4.29087C51.2238 1.97314 49.4771 0.285645 47.1778 0.285645ZM16.4192 43.1539H9.19603V20.2464H16.4192V43.1539ZM13.0575 16.7635H13.0057C10.694 16.7635 9.19716 15.0082 9.19716 12.811C9.19716 10.5737 10.7334 8.85975 13.0968 8.85975C15.4603 8.85975 16.9065 10.561 16.9583 12.811C16.9571 15.0082 15.4603 16.7635 13.0575 16.7635ZM42.8178 43.1539H35.5946V30.6285C35.5946 27.6277 34.5434 25.5775 31.9301 25.5775C29.9336 25.5775 28.7519 26.955 28.2263 28.297C28.0293 28.7791 27.9764 29.4358 27.9764 30.1062V43.1539H20.7533V20.2464H27.9764V23.4342C29.0276 21.9075 30.6696 19.7103 34.4905 19.7103C39.2321 19.7103 42.8189 22.8981 42.8189 29.771L42.8178 43.1539Z" fill="white"/>
</svg>
