<svg width="21" height="20" viewBox="0 0 21 20" fill="none" xmlns="http://www.w3.org/2000/svg">
<path d="M10.5 0C4.99 0 0.5 4.49 0.5 10C0.5 15.51 4.99 20 10.5 20C16.01 20 20.5 15.51 20.5 10C20.5 4.49 16.01 0 10.5 0ZM1.51 10C1.51 8.7 1.79 7.46 2.29 6.34L6.58 18.09C3.58 16.63 1.51 13.56 1.51 10ZM10.5 18.99C9.62 18.99 8.77 18.86 7.96 18.62L10.66 10.78L13.42 18.35C13.44 18.39 13.46 18.44 13.48 18.47C12.55 18.81 11.55 18.99 10.5 18.99ZM11.74 5.78C12.28 5.75 12.77 5.69 12.77 5.69C13.25 5.63 13.2 4.92 12.71 4.95C12.71 4.95 11.25 5.06 10.31 5.06C9.43 5.06 7.94 4.95 7.94 4.95C7.46 4.93 7.4 5.67 7.89 5.7C7.89 5.7 8.35 5.76 8.83 5.79L10.23 9.63L8.26 15.53L4.99 5.78C5.53 5.76 6.02 5.7 6.02 5.7C6.5 5.64 6.45 4.93 5.96 4.96C5.96 4.96 4.5 5.07 3.56 5.07C3.39 5.07 3.19 5.07 2.98 5.06C4.6 2.62 7.36 1.01 10.5 1.01C12.84 1.01 14.97 1.9 16.57 3.37C16.53 3.37 16.49 3.36 16.45 3.36C15.57 3.36 14.94 4.13 14.94 4.96C14.94 5.7 15.37 6.33 15.82 7.07C16.16 7.67 16.56 8.44 16.56 9.55C16.56 10.32 16.26 11.21 15.88 12.46L14.98 15.46L11.74 5.78ZM18.39 5.69C19.5127 7.74575 19.7887 10.1585 19.1593 12.4147C18.5299 14.6709 17.0447 16.5923 15.02 17.77L17.77 9.83C18.28 8.55 18.45 7.52 18.45 6.61C18.45 6.28 18.43 5.97 18.39 5.69Z" fill="#747474"/>
</svg>
